<svg width="221" height="275" viewBox="0 0 221 275" fill="none" xmlns="http://www.w3.org/2000/svg">
<path d="M214.008 186.609V64.205L108.003 3L2 64.205V186.609L108.003 247.814L214.008 186.609Z" stroke="url(#paint0_linear_3652_6800)" stroke-width="4" stroke-miterlimit="10"/>
<g filter="url(#filter0_i_3652_6800)">
<path d="M198.999 177.499V72.5012L107.998 20L16.9989 72.5012V177.499L107.998 230L198.999 177.499Z" fill="url(#paint1_linear_3652_6800)"/>
</g>
<g filter="url(#filter1_d_3652_6800)">
<path fill-rule="evenodd" clip-rule="evenodd" d="M140.251 71.5495C141.032 70.7684 142.299 70.7684 143.08 71.5495L152.979 81.449C153.76 82.23 153.76 83.4963 152.979 84.2774L89.3396 147.917L76.6117 135.189L140.251 71.5495ZM74.599 137.419C74.371 137.784 74.1822 138.173 74.0366 138.581L68.1293 155.121C67.8455 155.916 68.6128 156.683 69.4074 156.399L85.9477 150.492C86.3553 150.347 86.7448 150.158 87.1096 149.93L74.599 137.419ZM141.697 75.8239L148.768 82.8949L137.455 94.2086L130.384 87.1376L141.697 75.8239Z" fill="#E5E5FF"/>
</g>
<path fill-rule="evenodd" clip-rule="evenodd" d="M165 174H68V171H165V174Z" fill="url(#paint2_linear_3652_6800)"/>
<g filter="url(#filter2_ddi_3652_6800)">
<circle cx="164" cy="218" r="33" fill="url(#paint3_linear_3652_6800)"/>
</g>
<g clip-path="url(#clip0_3652_6800)">
<path d="M152.87 225.631C153.081 225.42 153.367 225.302 153.665 225.302H181.167C181.668 225.302 181.919 225.908 181.564 226.262L176.13 231.692C175.919 231.902 175.633 232.021 175.335 232.021H147.833C147.332 232.021 147.081 231.415 147.436 231.061L152.87 225.631Z" fill="#161230"/>
<path d="M152.87 205.357C153.081 205.147 153.367 205.028 153.665 205.028H181.167C181.668 205.028 181.919 205.634 181.564 205.988L176.13 211.418C175.919 211.629 175.633 211.747 175.335 211.747H147.833C147.332 211.747 147.081 211.141 147.436 210.787L152.87 205.357Z" fill="#161230"/>
<path d="M176.13 215.47C175.919 215.259 175.633 215.141 175.335 215.141H147.833C147.332 215.141 147.081 215.746 147.436 216.101L152.87 221.531C153.081 221.741 153.367 221.86 153.665 221.86H181.167C181.668 221.86 181.919 221.254 181.564 220.9L176.13 215.47Z" fill="#161230"/>
</g>
<defs>
<filter id="filter0_i_3652_6800" x="16.9989" y="20" width="182" height="210" filterUnits="userSpaceOnUse" color-interpolation-filters="sRGB">
<feFlood flood-opacity="0" result="BackgroundImageFix"/>
<feBlend mode="normal" in="SourceGraphic" in2="BackgroundImageFix" result="shape"/>
<feColorMatrix in="SourceAlpha" type="matrix" values="0 0 0 0 0 0 0 0 0 0 0 0 0 0 0 0 0 0 127 0" result="hardAlpha"/>
<feOffset dy="6"/>
<feComposite in2="hardAlpha" operator="arithmetic" k2="-1" k3="1"/>
<feColorMatrix type="matrix" values="0 0 0 0 1 0 0 0 0 1 0 0 0 0 1 0 0 0 0.05 0"/>
<feBlend mode="normal" in2="shape" result="effect1_innerShadow_3652_6800"/>
</filter>
<filter id="filter1_d_3652_6800" x="64.0691" y="70.9639" width="93.4959" height="93.4956" filterUnits="userSpaceOnUse" color-interpolation-filters="sRGB">
<feFlood flood-opacity="0" result="BackgroundImageFix"/>
<feColorMatrix in="SourceAlpha" type="matrix" values="0 0 0 0 0 0 0 0 0 0 0 0 0 0 0 0 0 0 127 0" result="hardAlpha"/>
<feOffset dy="4"/>
<feGaussianBlur stdDeviation="2"/>
<feComposite in2="hardAlpha" operator="out"/>
<feColorMatrix type="matrix" values="0 0 0 0 0 0 0 0 0 0 0 0 0 0 0 0 0 0 0.25 0"/>
<feBlend mode="normal" in2="BackgroundImageFix" result="effect1_dropShadow_3652_6800"/>
<feBlend mode="normal" in="SourceGraphic" in2="effect1_dropShadow_3652_6800" result="shape"/>
</filter>
<filter id="filter2_ddi_3652_6800" x="107" y="161" width="114" height="114" filterUnits="userSpaceOnUse" color-interpolation-filters="sRGB">
<feFlood flood-opacity="0" result="BackgroundImageFix"/>
<feColorMatrix in="SourceAlpha" type="matrix" values="0 0 0 0 0 0 0 0 0 0 0 0 0 0 0 0 0 0 127 0" result="hardAlpha"/>
<feOffset/>
<feGaussianBlur stdDeviation="12"/>
<feComposite in2="hardAlpha" operator="out"/>
<feColorMatrix type="matrix" values="0 0 0 0 0.486275 0 0 0 0 1 0 0 0 0 0.631373 0 0 0 0.5 0"/>
<feBlend mode="normal" in2="BackgroundImageFix" result="effect1_dropShadow_3652_6800"/>
<feColorMatrix in="SourceAlpha" type="matrix" values="0 0 0 0 0 0 0 0 0 0 0 0 0 0 0 0 0 0 127 0" result="hardAlpha"/>
<feOffset/>
<feGaussianBlur stdDeviation="4"/>
<feComposite in2="hardAlpha" operator="out"/>
<feColorMatrix type="matrix" values="0 0 0 0 0 0 0 0 0 0 0 0 0 0 0 0 0 0 0.6 0"/>
<feBlend mode="normal" in2="effect1_dropShadow_3652_6800" result="effect2_dropShadow_3652_6800"/>
<feBlend mode="normal" in="SourceGraphic" in2="effect2_dropShadow_3652_6800" result="shape"/>
<feColorMatrix in="SourceAlpha" type="matrix" values="0 0 0 0 0 0 0 0 0 0 0 0 0 0 0 0 0 0 127 0" result="hardAlpha"/>
<feOffset/>
<feGaussianBlur stdDeviation="2"/>
<feComposite in2="hardAlpha" operator="arithmetic" k2="-1" k3="1"/>
<feColorMatrix type="matrix" values="0 0 0 0 1 0 0 0 0 1 0 0 0 0 1 0 0 0 0.7 0"/>
<feBlend mode="normal" in2="shape" result="effect3_innerShadow_3652_6800"/>
</filter>
<linearGradient id="paint0_linear_3652_6800" x1="15.2505" y1="212.841" x2="136.459" y2="13.0342" gradientUnits="userSpaceOnUse">
<stop stop-color="#5E27ED"/>
<stop offset="0.510417" stop-color="#8698F9"/>
<stop offset="1" stop-color="#74CDFF"/>
</linearGradient>
<linearGradient id="paint1_linear_3652_6800" x1="107.999" y1="20" x2="107.999" y2="230" gradientUnits="userSpaceOnUse">
<stop stop-color="#312745"/>
<stop offset="1" stop-color="#14131B"/>
</linearGradient>
<linearGradient id="paint2_linear_3652_6800" x1="88.857" y1="171" x2="165.405" y2="171" gradientUnits="userSpaceOnUse">
<stop stop-color="#E5E5FF"/>
<stop offset="1" stop-color="#E5E5FF" stop-opacity="0"/>
</linearGradient>
<linearGradient id="paint3_linear_3652_6800" x1="137.5" y1="235.5" x2="192.991" y2="202.508" gradientUnits="userSpaceOnUse">
<stop stop-color="#9945FF"/>
<stop offset="1" stop-color="#19FB9B"/>
</linearGradient>
<clipPath id="clip0_3652_6800">
<rect width="35" height="35" fill="white" transform="translate(147 201)"/>
</clipPath>
</defs>
</svg>
