<svg width="217" height="251" viewBox="0 0 217 251" fill="none" xmlns="http://www.w3.org/2000/svg">
<path d="M214.008 186.609V64.205L108.003 3L2 64.205V186.609L108.003 247.814L214.008 186.609Z" stroke="url(#paint0_linear_3652_5674)" stroke-width="4" stroke-miterlimit="10"/>
<path d="M108 248V177" stroke="#6438EF" stroke-width="4" stroke-miterlimit="10"/>
<path d="M108 74V3" stroke="#75CAFF" stroke-miterlimit="10"/>
<path d="M215 187L158 154" stroke="#859BF9" stroke-miterlimit="10"/>
<path d="M60.0395 153L3 185.932" stroke="#6436EF" stroke-miterlimit="10"/>
<path d="M214 64.5L115.5 119" stroke="url(#paint1_linear_3652_5674)" stroke-width="4" stroke-miterlimit="10"/>
<path d="M214 64.5L115.5 119" stroke="url(#paint2_linear_3652_5674)" stroke-width="4" stroke-miterlimit="10"/>
<path d="M2 64.5L100.5 119" stroke="url(#paint3_linear_3652_5674)" stroke-width="4" stroke-miterlimit="10"/>
<g filter="url(#filter0_i_3652_5674)">
<path d="M177 164.999V85.0009L107.999 45L39 85.0009V164.999L107.999 205L177 164.999Z" fill="url(#paint4_linear_3652_5674)"/>
</g>
<g filter="url(#filter1_d_3652_5674)">
<path fill-rule="evenodd" clip-rule="evenodd" d="M133.311 115.442H130.795V104.747C130.768 92.1902 120.565 82 108.005 82C95.4383 82 85.2355 92.1894 85.2098 104.747L85.231 115.442H82.69C80.6539 115.442 79 117.098 79 119.135V158.036C79 160.074 80.5 161 82.69 161.728L108 169L133.31 161.728C135.5 161 137.006 160.074 137.006 158.036L137.006 119.133C137.006 117.097 135.351 115.441 133.31 115.441L133.311 115.442ZM113.377 150.076H102.629L104.821 136.597C103.381 135.59 102.436 133.925 102.436 132.033C102.436 128.957 104.922 126.466 108.003 126.466C111.076 126.466 113.571 128.958 113.571 132.033C113.571 133.925 112.615 135.59 111.175 136.597L113.377 150.076ZM93.4747 115.442L93.4558 104.746C93.4825 96.7437 99.992 90.2484 108.006 90.2484C116.014 90.2484 122.525 96.7452 122.545 104.746L122.55 115.442H108.013H93.4747Z" fill="#E5E5FF"/>
</g>
<defs>
<filter id="filter0_i_3652_5674" x="39" y="45" width="138" height="160" filterUnits="userSpaceOnUse" color-interpolation-filters="sRGB">
<feFlood flood-opacity="0" result="BackgroundImageFix"/>
<feBlend mode="normal" in="SourceGraphic" in2="BackgroundImageFix" result="shape"/>
<feColorMatrix in="SourceAlpha" type="matrix" values="0 0 0 0 0 0 0 0 0 0 0 0 0 0 0 0 0 0 127 0" result="hardAlpha"/>
<feOffset dy="6"/>
<feComposite in2="hardAlpha" operator="arithmetic" k2="-1" k3="1"/>
<feColorMatrix type="matrix" values="0 0 0 0 1 0 0 0 0 1 0 0 0 0 1 0 0 0 0.05 0"/>
<feBlend mode="normal" in2="shape" result="effect1_innerShadow_3652_5674"/>
</filter>
<filter id="filter1_d_3652_5674" x="75" y="82" width="66.0063" height="95" filterUnits="userSpaceOnUse" color-interpolation-filters="sRGB">
<feFlood flood-opacity="0" result="BackgroundImageFix"/>
<feColorMatrix in="SourceAlpha" type="matrix" values="0 0 0 0 0 0 0 0 0 0 0 0 0 0 0 0 0 0 127 0" result="hardAlpha"/>
<feOffset dy="4"/>
<feGaussianBlur stdDeviation="2"/>
<feComposite in2="hardAlpha" operator="out"/>
<feColorMatrix type="matrix" values="0 0 0 0 0 0 0 0 0 0 0 0 0 0 0 0 0 0 0.25 0"/>
<feBlend mode="normal" in2="BackgroundImageFix" result="effect1_dropShadow_3652_5674"/>
<feBlend mode="normal" in="SourceGraphic" in2="effect1_dropShadow_3652_5674" result="shape"/>
</filter>
<linearGradient id="paint0_linear_3652_5674" x1="15.2505" y1="212.841" x2="136.459" y2="13.0342" gradientUnits="userSpaceOnUse">
<stop stop-color="#5E27ED"/>
<stop offset="0.510417" stop-color="#8698F9"/>
<stop offset="1" stop-color="#74CDFF"/>
</linearGradient>
<linearGradient id="paint1_linear_3652_5674" x1="121.656" y1="111.214" x2="137.965" y2="55.1056" gradientUnits="userSpaceOnUse">
<stop stop-color="#5E27ED"/>
<stop offset="0.510417" stop-color="#8698F9"/>
<stop offset="1" stop-color="#74CDFF"/>
</linearGradient>
<linearGradient id="paint2_linear_3652_5674" x1="121.656" y1="111.214" x2="137.965" y2="55.1056" gradientUnits="userSpaceOnUse">
<stop stop-color="#5E27ED"/>
<stop offset="0.510417" stop-color="#8698F9"/>
<stop offset="1" stop-color="#74CDFF"/>
</linearGradient>
<linearGradient id="paint3_linear_3652_5674" x1="94.3438" y1="111.214" x2="78.0347" y2="55.1056" gradientUnits="userSpaceOnUse">
<stop stop-color="#5E27ED"/>
<stop offset="0.510417" stop-color="#8698F9"/>
<stop offset="1" stop-color="#8699F9"/>
</linearGradient>
<linearGradient id="paint4_linear_3652_5674" x1="108" y1="45" x2="108" y2="205" gradientUnits="userSpaceOnUse">
<stop stop-color="#312745"/>
<stop offset="1" stop-color="#14131B"/>
</linearGradient>
</defs>
</svg>
